<?xml version="1.0" standalone="no"?>
<!DOCTYPE svg PUBLIC "-//W3C//DTD SVG 20010904//EN"
 "http://www.w3.org/TR/2001/REC-SVG-20010904/DTD/svg10.dtd">
<svg version="1.0" xmlns="http://www.w3.org/2000/svg"
 width="580.000000pt" height="580.000000pt" viewBox="0 0 580.000000 580.000000"
 preserveAspectRatio="xMidYMid meet">

<g transform="translate(0.000000,580.000000) scale(0.100000,-0.100000)"
fill="#000000" stroke="none">
<path d="M0 3370 l0 -2431 513 3 c498 3 513 4 557 24 95 45 70 -4 490 934 99
223 199 446 221 495 22 50 86 194 143 320 l101 230 65 21 c89 29 308 79 316
71 3 -3 -1 -16 -10 -29 -9 -12 -16 -31 -16 -41 0 -10 -4 -15 -10 -12 -5 3 -7
0 -4 -8 3 -8 -1 -21 -9 -29 -32 -32 -322 -703 -311 -720 4 -7 3 -8 -4 -4 -11
7 -17 -11 -13 -41 1 -7 -3 -13 -9 -13 -6 0 -8 -4 -5 -10 3 -6 2 -10 -4 -10 -6
0 -7 -7 -4 -17 4 -10 2 -14 -4 -10 -11 7 -45 -63 -49 -102 -1 -14 -7 -27 -13
-29 -5 -2 -7 -10 -4 -19 4 -11 2 -14 -5 -9 -8 4 -10 2 -6 -7 3 -8 -1 -21 -8
-28 -7 -8 -14 -21 -16 -29 -6 -30 -75 -180 -84 -180 -4 0 -7 -3 -7 -7 4 -25
-2 -43 -13 -37 -8 5 -9 2 -5 -9 4 -10 1 -17 -5 -17 -6 0 -9 -3 -5 -6 7 -8 -19
-83 -37 -104 -7 -8 -26 -49 -41 -90 -16 -41 -36 -86 -47 -99 -10 -13 -18 -33
-18 -43 0 -11 -16 -49 -35 -84 -28 -51 -35 -74 -35 -120 0 -50 3 -59 33 -89
32 -32 88 -55 135 -55 19 0 22 -5 22 -39 0 -34 -3 -39 -27 -44 -16 -3 -412 -3
-880 0 l-853 5 0 -61 0 -61 960 0 960 0 0 -45 0 -45 -960 0 -960 0 0 -320 0
-320 2900 0 2900 0 0 323 0 322 -960 -1 -960 -1 0 49 0 48 960 0 960 0 0 62 0
61 -342 -7 c-416 -9 -1359 -9 -1393 0 -14 3 -26 11 -26 18 -7 60 -7 60 49 68
100 15 142 57 142 143 0 40 -37 135 -52 135 -6 0 -7 7 -4 16 3 8 2 13 -3 10
-9 -6 -23 29 -61 142 -28 85 -81 202 -91 202 -5 0 -5 7 -2 17 4 10 2 14 -4 10
-11 -7 -40 58 -35 76 1 4 -2 7 -7 7 -5 0 -12 7 -15 16 -3 8 -2 12 4 9 6 -3 7
1 4 9 -3 9 -11 13 -17 9 -6 -4 -8 2 -5 15 4 12 3 20 -2 17 -10 -6 -22 24 -14
36 3 5 0 9 -5 9 -6 0 -10 3 -9 8 5 13 -33 102 -43 102 -6 0 -7 5 -3 11 3 6 1
15 -5 19 -12 6 -18 27 -20 58 -1 7 -5 10 -11 7 -6 -4 -10 7 -10 25 0 21 -4 29
-12 24 -6 -4 -8 -3 -5 4 10 15 -3 43 -16 35 -6 -3 -7 -1 -3 6 10 16 -3 53 -16
45 -7 -4 -8 -2 -4 5 10 16 -63 189 -81 193 -11 2 19 47 93 142 60 77 114 141
120 143 6 2 17 -11 24 -29 8 -18 27 -62 43 -98 16 -36 47 -105 69 -155 22 -49
78 -173 123 -275 46 -102 99 -221 118 -265 31 -72 150 -337 290 -645 59 -131
116 -200 182 -221 30 -9 172 -14 548 -16 l507 -4 0 2430 0 2431 -2900 0 -2900
0 0 -2430z m3061 1238 c82 -191 237 -544 345 -785 107 -241 198 -448 201 -460
5 -22 4 -22 -24 -8 -40 20 -164 45 -265 53 l-83 7 -30 63 c-17 35 -35 59 -39
55 -5 -4 -6 -2 -2 5 9 16 -3 54 -15 47 -5 -3 -6 2 -2 11 5 13 3 15 -7 9 -9 -6
-11 -4 -5 4 10 17 -155 412 -168 404 -6 -3 -7 -1 -3 6 9 14 -2 53 -14 46 -4
-3 -6 3 -4 12 6 28 -28 88 -50 88 -11 0 -21 -6 -24 -14 -3 -8 0 -11 7 -7 7 4
9 1 5 -8 -3 -9 -10 -14 -15 -13 -13 3 -71 -144 -64 -161 3 -8 0 -10 -7 -6 -8
5 -9 1 -4 -12 4 -10 4 -15 0 -11 -10 9 -36 -52 -28 -64 8 -14 -58 -179 -70
-172 -5 3 -6 1 -2 -6 8 -13 -2 -53 -12 -47 -4 2 -8 -7 -9 -21 0 -14 -6 -30
-13 -37 -8 -8 -10 -6 -5 9 6 19 6 19 -5 2 -6 -10 -9 -25 -6 -33 3 -8 2 -12 -3
-9 -12 7 -24 -31 -15 -46 4 -7 3 -9 -4 -5 -13 8 -26 -29 -16 -45 4 -8 3 -9 -4
-5 -7 4 -12 5 -12 2 0 -2 -3 -13 -6 -23 -5 -15 -4 -16 6 -3 9 12 11 12 8 1 -5
-16 -7 -17 -143 -25 -115 -8 -218 -27 -241 -47 -15 -12 -16 -11 -11 6 4 11 39
92 77 180 91 205 404 932 510 1185 96 227 98 232 111 228 6 -2 77 -159 160
-350z m-2281 206 c211 -276 552 -717 1017 -1317 85 -109 156 -204 159 -212 4
-10 0 -13 -13 -10 -11 2 -73 -14 -139 -36 -65 -21 -126 -39 -135 -39 -9 0 -49
43 -90 96 -41 53 -101 131 -134 173 -76 96 -155 199 -253 326 -96 126 -111
143 -144 176 -16 15 -28 31 -28 36 -1 4 -13 24 -28 44 -57 77 -157 205 -174
224 -10 11 -35 43 -55 72 -20 29 -42 53 -50 53 -11 0 -13 -263 -13 -1538 0
-1703 -4 -1610 63 -1669 30 -27 65 -40 150 -58 24 -5 27 -10 27 -43 l0 -37
-407 5 -407 5 -7 29 c-10 37 -4 46 29 46 79 0 152 46 183 115 18 38 19 110 19
1710 0 1091 -4 1692 -10 1733 -6 35 -18 74 -26 87 -21 32 -96 67 -155 73 -27
2 -49 10 -49 16 0 6 -3 21 -6 34 l-6 22 298 -2 298 -3 86 -111z m4920 94 c0
-36 -12 -45 -67 -51 -70 -8 -126 -39 -154 -84 l-24 -38 -3 -1710 c-2 -1199 0
-1721 8 -1747 22 -77 78 -119 178 -133 44 -6 52 -10 52 -28 0 -12 -4 -27 -8
-33 -5 -8 -123 -13 -409 -15 -221 -2 -403 -2 -406 1 -3 3 -8 19 -11 36 -7 31
-7 31 45 38 87 12 155 57 178 119 8 20 11 500 11 1563 0 1039 3 1542 10 1555
9 16 7 19 -9 19 -20 0 -35 -18 -209 -248 -40 -54 -79 -105 -87 -115 -8 -9 -15
-22 -15 -27 0 -6 -4 -10 -8 -10 -5 0 -15 -11 -22 -25 -7 -14 -16 -23 -18 -20
-6 6 -38 -37 -34 -47 1 -5 -2 -8 -7 -8 -12 0 -158 -192 -171 -223 -5 -12 -26
-40 -47 -63 -21 -23 -39 -44 -40 -48 -2 -3 -5 -5 -7 -3 -7 3 -115 -144 -133
-181 -8 -18 -28 -43 -45 -57 -16 -13 -30 -28 -31 -32 -1 -4 -13 -19 -27 -33
-46 -45 -110 -132 -104 -141 3 -5 2 -9 -3 -8 -19 3 -24 -2 -11 -14 43 -44 438
-92 438 -53 0 26 42 66 80 76 53 14 102 -6 119 -49 19 -45 7 -77 -39 -103 -22
-13 -40 -28 -40 -33 0 -6 48 -125 106 -265 58 -140 121 -294 141 -342 30 -76
38 -88 59 -88 30 0 30 -7 1 -34 -12 -11 -31 -32 -42 -46 -31 -39 -75 -66 -145
-90 -56 -19 -81 -21 -175 -18 -144 6 -203 29 -293 114 l-65 62 30 6 c33 8 41
23 254 534 l72 174 -20 20 c-20 19 -25 19 -113 8 -103 -13 -228 -3 -364 29
l-77 18 -39 -44 c-22 -25 -38 -49 -37 -53 1 -5 -7 -16 -18 -25 -11 -9 -13 -14
-5 -10 8 4 6 -2 -6 -12 -11 -10 -22 -22 -25 -28 -2 -5 -7 -9 -11 -7 -8 2 -12
-14 -9 -31 1 -5 -3 -6 -8 -3 -10 7 -165 -189 -493 -622 -106 -141 -119 -160
-97 -147 16 10 -58 -91 -79 -106 -13 -11 -13 -9 2 9 11 12 17 22 13 22 -3 0
-20 -19 -38 -43 -25 -31 -27 -37 -9 -22 21 18 21 16 -4 -17 -28 -37 -50 -55
-26 -20 7 9 -8 -5 -34 -33 -45 -49 -62 -80 -29 -54 9 8 7 0 -7 -19 -27 -36
-36 -42 -20 -12 20 38 2 20 -60 -61 -51 -66 -65 -78 -75 -67 -6 7 -85 106
-174 221 -89 114 -166 205 -171 202 -4 -3 -7 3 -6 12 0 10 -6 18 -14 18 -8 0
-14 7 -12 16 1 8 -10 26 -25 40 l-28 24 20 -25 20 -25 -22 19 c-13 10 -20 23
-17 28 3 5 -14 34 -38 65 -23 31 -62 81 -86 112 -24 31 -50 58 -57 61 -12 4
-1 37 48 149 34 80 67 146 73 148 6 2 89 -96 185 -218 96 -122 186 -236 201
-253 l27 -31 1 422 c0 232 3 429 7 439 4 11 3 15 -4 11 -6 -4 -10 0 -9 9 2 23
-86 81 -153 101 -38 11 -91 16 -166 16 -117 -1 -269 -33 -485 -102 -287 -91
-470 -120 -633 -101 -86 10 -102 9 -123 -5 -13 -8 -24 -19 -24 -23 0 -21 295
-694 307 -698 48 -15 48 -13 -8 -70 -69 -71 -117 -99 -204 -120 -87 -20 -192
-14 -288 16 -59 18 -78 31 -133 86 -35 36 -64 70 -64 75 0 5 11 9 25 9 14 0
25 1 25 3 0 2 63 154 140 337 77 183 140 341 140 349 0 9 -18 29 -40 44 -40
29 -47 46 -34 95 8 28 52 52 98 52 36 0 96 -40 96 -65 0 -19 24 -25 108 -25
134 0 254 27 522 115 273 90 372 117 515 136 85 11 231 8 331 -7 39 -6 42 -4
62 30 l22 37 -27 49 c-26 49 -27 50 -9 86 22 47 86 125 96 119 5 -3 29 -33 54
-66 51 -68 59 -109 27 -143 -27 -29 -28 -46 -5 -84 l19 -33 65 8 c185 23 438
-6 631 -72 40 -13 75 -25 75 -25 1 0 86 111 190 246 104 135 216 280 249 323
33 42 122 157 198 254 75 97 199 257 274 355 75 97 176 227 223 287 47 61 114
150 150 198 l64 87 293 0 293 0 0 -22z m-2859 -875 c-12 -20 -14 -14 -5 12 4
9 9 14 11 11 3 -2 0 -13 -6 -23z"/>
<path d="M3133 3155 c-52 -16 -123 -56 -143 -81 -13 -17 -14 -78 -10 -464 5
-443 5 -444 24 -415 11 17 76 102 146 190 237 301 386 490 447 570 34 44 73
94 87 111 l26 32 -87 21 c-207 52 -395 66 -490 36z"/>
<path d="M1173 2853 c-61 -155 -147 -366 -162 -398 -10 -22 -22 -51 -26 -65
-4 -14 -18 -51 -31 -82 -13 -32 -24 -60 -24 -63 0 -3 121 -5 269 -5 l269 0
-68 159 c-37 88 -71 172 -75 188 -3 15 -26 69 -50 118 -24 50 -50 109 -57 133
-15 49 -29 53 -45 15z"/>
<path d="M4586 2872 c-2 -4 -16 -37 -29 -72 -14 -36 -36 -90 -50 -120 -14 -30
-36 -84 -50 -120 -14 -36 -41 -96 -61 -135 -20 -38 -36 -79 -36 -90 -1 -11 -7
-31 -15 -45 -29 -51 -34 -50 256 -50 254 0 271 1 266 18 -10 31 -105 262 -122
295 -9 17 -32 73 -52 122 -74 189 -92 221 -107 197z"/>
<path d="M3199 1983 c-13 -16 -12 -17 4 -4 16 13 21 21 13 21 -2 0 -10 -8 -17
-17z"/>
</g>
</svg>
